<svg width="157" height="158" viewBox="0 0 157 158" fill="none" xmlns="http://www.w3.org/2000/svg">
<path d="M81.1167 131.667H75.8833V136.933H81.1167V131.667Z" fill="black"/>
<path d="M154.383 136.933H151.767V42.1333C151.767 36.316 147.081 31.6 141.3 31.6H125.6V10.5333C125.6 4.71597 120.914 0 115.133 0H41.8667C36.0861 0 31.4 4.71597 31.4 10.5333V31.6H15.7C9.91946 31.6 5.23333 36.316 5.23333 42.1333V136.933H2.61667C1.17161 136.933 0 138.112 0 139.567V147.467C0 153.284 4.68612 158 10.4667 158H146.533C152.314 158 157 153.284 157 147.467V139.567C157 138.112 155.828 136.933 154.383 136.933ZM36.6333 10.5333C36.6333 7.62449 38.9762 5.26667 41.8667 5.26667H115.133C118.024 5.26667 120.367 7.62449 120.367 10.5333V21.0667H36.6333V10.5333ZM36.6333 26.3333H120.367V102.7C120.367 105.609 118.024 107.967 115.133 107.967H41.8667C38.9762 107.967 36.6333 105.609 36.6333 102.7V26.3333ZM41.8667 113.233H115.133C120.914 113.233 125.6 108.517 125.6 102.7V47.4H136.067V121.133H20.9333V47.4H31.4V102.7C31.4 108.517 36.0861 113.233 41.8667 113.233ZM10.4667 42.1333C10.4667 39.2245 12.8096 36.8667 15.7 36.8667H31.4V42.1333H18.3167C16.8716 42.1333 15.7 43.3124 15.7 44.7667V123.767C15.7 125.221 16.8716 126.4 18.3167 126.4H138.683C140.128 126.4 141.3 125.221 141.3 123.767V44.7667C141.3 43.3124 140.128 42.1333 138.683 42.1333H125.6V36.8667H141.3C144.19 36.8667 146.533 39.2245 146.533 42.1333V136.933H102.05C101.357 136.933 100.691 137.21 100.2 137.702L95.7334 142.2H61.2666L56.8 137.702C56.309 137.21 55.6434 136.933 54.95 136.933H10.4667V42.1333ZM151.767 147.467C151.767 150.376 149.424 152.733 146.533 152.733H10.4667C7.57623 152.733 5.23333 150.376 5.23333 147.467V142.2H53.8667L58.3333 146.695C58.824 147.189 59.4893 147.467 60.1833 147.467H96.8167C97.5107 147.467 98.176 147.189 98.6666 146.695L103.133 142.2H151.767V147.467Z" fill="black"/>
<path d="M112.517 84.2667H44.4833V89.5333H112.517V84.2667Z" fill="black"/>
<path d="M107.283 94.8H44.4833V100.067H107.283V94.8Z" fill="black"/>
<path d="M112.517 73.7333H60.1833V79H112.517V73.7333Z" fill="black"/>
<path d="M47.1 10.5333H41.8667V15.8H47.1V10.5333Z" fill="black"/>
<path d="M57.5667 10.5333H52.3333V15.8H57.5667V10.5333Z" fill="black"/>
<path d="M68.0333 10.5333H62.8V15.8H68.0333V10.5333Z" fill="black"/>
<path d="M54.95 73.7333H49.7167V79H54.95V73.7333Z" fill="black"/>
<path d="M69.6033 44.24L66.4633 40.0267L55.9967 47.9267C54.8404 48.7993 54.6062 50.4498 55.4733 51.6134C55.6222 51.8128 55.7985 51.9903 55.9967 52.14L66.4633 60.04L69.6033 55.8267L61.9287 50.0334L69.6033 44.24Z" fill="black"/>
<path d="M101.527 48.4534C101.378 48.2539 101.202 48.0765 101.003 47.9267L90.5367 40.0267L87.3967 44.24L95.0714 50.0334L87.3967 55.8267L90.5367 60.04L101.003 52.14C102.16 51.2674 102.394 49.617 101.527 48.4534Z" fill="black"/>
<path d="M81.3065 35.8941L70.8371 62.2244L75.6957 64.181L86.1651 37.8506L81.3065 35.8941Z" fill="black"/>
</svg>
