<svg width="149" height="153" viewBox="0 0 149 153" fill="none" xmlns="http://www.w3.org/2000/svg">
<path d="M16.4803 10.5491H11.2058V15.8236H16.4803V10.5491Z" fill="black"/>
<path d="M27.0294 10.5491H21.7549V15.8236H27.0294V10.5491Z" fill="black"/>
<path d="M37.5785 10.5491H32.304V15.8236H37.5785V10.5491Z" fill="black"/>
<path d="M114.059 94.9418C100.951 94.9418 90.3239 105.568 90.3239 118.677C90.3239 131.786 100.951 142.413 114.059 142.413C127.168 142.413 137.795 131.786 137.795 118.677C137.779 105.575 127.162 94.9576 114.059 94.9418ZM114.059 137.138C103.864 137.138 95.5985 128.873 95.5985 118.677C95.5985 108.482 103.864 100.216 114.059 100.216C124.255 100.216 132.52 108.482 132.52 118.677C132.509 128.868 124.25 137.127 114.059 137.138Z" fill="black"/>
<path d="M145.714 105.576C143.901 101.211 141.205 97.2679 137.795 93.995V10.5491C137.795 4.72302 133.072 0 127.246 0H11.2058C5.37973 0 0.656708 4.72302 0.656708 10.5491V121.314C0.656708 127.141 5.37973 131.864 11.2058 131.864H82.4121C89.6712 149.344 109.726 157.63 127.207 150.371C144.687 143.112 152.973 123.056 145.714 105.576ZM5.93125 10.5491C5.93125 7.63589 8.2926 5.27454 11.2058 5.27454H127.246C130.159 5.27454 132.52 7.63589 132.52 10.5491V21.0982H5.93125V10.5491ZM80.7322 126.589H11.2058C8.2926 126.589 5.93125 124.228 5.93125 121.314V26.3727H132.52V89.8334C116.658 79.5866 95.493 84.1389 85.2462 100.001C80.1626 107.871 78.5307 117.482 80.7322 126.589ZM114.059 147.687C98.0377 147.687 85.0494 134.699 85.0494 118.677C85.0494 102.655 98.0377 89.6672 114.059 89.6672C130.081 89.6672 143.069 102.655 143.069 118.677C143.051 134.691 130.074 147.668 114.059 147.687Z" fill="black"/>
<path d="M124.063 110.219L111.422 122.86L105.375 116.813L101.646 120.542L109.558 128.454C110.587 129.483 112.257 129.483 113.287 128.454L127.792 113.949L124.063 110.219Z" fill="black"/>
<path d="M35.714 29.7827L31.2121 34.2845H16.4803C15.0239 34.2845 13.8431 35.4654 13.8431 36.9218V52.7454C13.8431 54.2019 15.0239 55.3827 16.4803 55.3827H32.304C33.7604 55.3827 34.9412 54.2019 34.9412 52.7454V38.0136L39.4431 33.5118L35.714 29.7827ZM29.6667 50.1082H19.1176V39.5591H25.9376L22.5276 42.9691L26.2567 46.6982L29.6667 43.2882V50.1082Z" fill="black"/>
<path d="M50.7649 34.2845H45.4903V39.5591H50.7649V34.2845Z" fill="black"/>
<path d="M124.608 34.2845H56.0394V39.5591H124.608V34.2845Z" fill="black"/>
<path d="M114.059 44.8336H45.4903V50.1082H114.059V44.8336Z" fill="black"/>
<path d="M35.714 61.43L31.2121 65.9318H16.4803C15.0239 65.9318 13.8431 67.1126 13.8431 68.5691V84.3927C13.8431 85.8491 15.0239 87.03 16.4803 87.03H32.304C33.7604 87.03 34.9412 85.8491 34.9412 84.3927V69.6609L39.4431 65.1591L35.714 61.43ZM29.6667 81.7554H19.1176V71.2063H25.9376L22.5276 74.6163L26.2567 78.3454L29.6667 74.9354V81.7554Z" fill="black"/>
<path d="M50.7649 65.9318H45.4903V71.2063H50.7649V65.9318Z" fill="black"/>
<path d="M124.608 65.9318H56.0394V71.2063H124.608V65.9318Z" fill="black"/>
<path d="M100.873 76.4809H45.4903V81.7554H100.873V76.4809Z" fill="black"/>
<path d="M35.714 93.0772L31.2121 97.579H16.4803C15.0239 97.579 13.8431 98.7599 13.8431 100.216V116.04C13.8431 117.496 15.0239 118.677 16.4803 118.677H32.304C33.7604 118.677 34.9412 117.496 34.9412 116.04V101.308L39.4431 96.8063L35.714 93.0772ZM29.6667 113.403H19.1176V102.854H25.9376L22.5276 106.264L26.2567 109.993L29.6667 106.583V113.403Z" fill="black"/>
<path d="M50.7649 97.5791H45.4903V102.854H50.7649V97.5791Z" fill="black"/>
<path d="M77.1376 97.5791H56.0394V102.854H77.1376V97.5791Z" fill="black"/>
<path d="M74.5003 108.128H45.4903V113.403H74.5003V108.128Z" fill="black"/>
</svg>
