<svg width="156" height="158" viewBox="0 0 156 158" fill="none" xmlns="http://www.w3.org/2000/svg">
<path d="M154.903 60.4297L140.009 45.533C138.981 44.504 137.313 44.503 136.285 45.531L136.283 45.533L126.726 55.0893V28.9667C126.726 28.9087 126.697 28.8587 126.692 28.8008C126.679 28.57 126.634 28.3422 126.558 28.124C126.529 28.0397 126.508 27.9581 126.471 27.8765C126.343 27.5894 126.165 27.3281 125.944 27.1049L99.6107 0.771567C99.3826 0.548392 99.1147 0.369654 98.8207 0.2449C98.7444 0.210667 98.6706 0.1896 98.5943 0.163267C98.3645 0.0819625 98.1242 0.0339042 97.8806 0.0210667C97.8543 0.0263333 97.8095 0 97.7595 0H13.4928C12.0386 0 10.8595 1.17908 10.8595 2.63333V134.3H2.95951C1.50525 134.3 0.326172 135.479 0.326172 136.933V147.467C0.326172 153.284 5.04214 158 10.8595 158H116.193C122.01 158 126.726 153.284 126.726 147.467V92.3299L154.903 64.1533C155.931 63.125 155.931 61.4581 154.903 60.4297ZM91.5896 105.123L87.8661 101.399L119.519 69.7438L123.245 73.47L91.5896 105.123ZM94.1624 115.143L80.8561 119.58L85.2933 106.271L94.1624 115.143ZM100.393 8.9902L117.736 26.3333H100.393V8.9902ZM10.8595 152.733C7.95066 152.733 5.59284 150.376 5.59284 147.467V139.567H105.66V147.467C105.657 149.316 106.145 151.134 107.074 152.733H10.8595ZM121.46 147.467C121.46 150.376 119.102 152.733 116.193 152.733C113.284 152.733 110.926 150.376 110.926 147.467V136.933C110.926 135.479 109.747 134.3 108.293 134.3H16.1262V5.26667H95.1262V28.9667C95.1262 30.4209 96.3053 31.6 97.7595 31.6H121.46V60.356L121.383 60.435L82.2808 99.54C82.2597 99.5584 82.2571 99.5874 82.2386 99.6058C81.973 99.8794 81.7699 100.207 81.6435 100.567L74.1938 122.913C73.7356 124.294 74.4831 125.784 75.8637 126.242C76.1313 126.331 76.4111 126.376 76.6928 126.376C76.9759 126.378 77.2574 126.331 77.525 126.239L99.8662 118.792C100.226 118.668 100.553 118.466 100.825 118.2C100.846 118.181 100.875 118.176 100.893 118.158L121.46 97.5966V147.467ZM99.0367 112.572L95.3131 108.849L126.968 77.1909L130.695 80.9171L99.0367 112.572ZM134.416 77.1909L123.245 66.0203L126.968 62.2941L138.139 73.47L134.416 77.1909ZM141.865 69.7465L130.692 58.5706L138.139 51.1235L149.312 62.2968L141.865 69.7465Z" fill="black"/>
<path d="M76.6929 36.8665V21.0665H71.4263V36.8665H66.1596V15.7998H60.8929V36.8665H55.6263V13.1665H50.3596V36.8665H45.0929V21.0665H39.8262V36.8665H34.5596V26.3332H29.2929V36.8665H24.0262V42.1332H81.9596V36.8665H76.6929Z" fill="black"/>
<path d="M29.2929 50.0332H24.0262V55.2999H29.2929V50.0332Z" fill="black"/>
<path d="M113.56 50.0332H34.5596V55.2999H113.56V50.0332Z" fill="black"/>
<path d="M108.293 60.5667H24.0262V65.8333H108.293V60.5667Z" fill="black"/>
<path d="M97.7596 71.1001H24.0262V76.3668H97.7596V71.1001Z" fill="black"/>
<path d="M87.2262 81.6333H24.0262V86.9H87.2262V81.6333Z" fill="black"/>
<path d="M29.2929 121.133V94.8H24.0262V123.767C24.0262 125.221 25.2053 126.4 26.6596 126.4H68.7929V121.133H29.2929Z" fill="black"/>
<path d="M61.6645 100.838L52.9929 109.51L46.9547 103.471C45.9264 102.443 44.2595 102.443 43.2311 103.471L32.6978 114.005L36.4213 117.728L45.0929 109.057L51.1311 115.095C52.1595 116.123 53.8264 116.123 54.8547 115.095L65.388 104.562L61.6645 100.838Z" fill="black"/>
</svg>
